<?xml version="1.0" encoding="utf-8"?>
<!-- Generator: Adobe Illustrator 16.0.0, SVG Export Plug-In . SVG Version: 6.00 Build 0)  -->
<!DOCTYPE svg PUBLIC "-//W3C//DTD SVG 1.1//EN" "http://www.w3.org/Graphics/SVG/1.1/DTD/svg11.dtd">
<svg version="1.1" id="Layer_1" xmlns="http://www.w3.org/2000/svg" xmlns:xlink="http://www.w3.org/1999/xlink" x="0px" y="0px"
	 width="25px" height="48.967px" viewBox="0 0 25 48.967" enable-background="new 0 0 25 48.967" xml:space="preserve">
<path fill="#FFFFFF" d="M11.741,10.757v35.619L1.294,35.932c-0.295-0.298-0.777-0.298-1.072,0c-0.295,0.295-0.295,0.776,0,1.071
	l11.742,11.743c0.006,0.005,0.015,0.011,0.022,0.02c0.016,0.015,0.033,0.029,0.05,0.043c0.013,0.008,0.026,0.021,0.039,0.027
	c0.018,0.012,0.035,0.021,0.053,0.034c0.015,0.009,0.031,0.017,0.047,0.024c0.011,0.006,0.021,0.011,0.035,0.017
	c0.005,0.002,0.013,0.003,0.02,0.005c0.016,0.008,0.034,0.011,0.05,0.018c0.019,0.004,0.038,0.01,0.056,0.017
	c0.017,0.004,0.035,0.006,0.052,0.007c0.019,0.004,0.038,0.006,0.057,0.008c0.018,0.002,0.036,0.002,0.054,0.002
	s0.037,0,0.055-0.002c0.018-0.002,0.038-0.004,0.057-0.008c0.017-0.001,0.034-0.003,0.051-0.007c0.02-0.005,0.038-0.011,0.059-0.017
	c0.016-0.007,0.032-0.01,0.047-0.016c0.007-0.004,0.015-0.005,0.021-0.007c0.012-0.006,0.024-0.011,0.037-0.019
	c0.015-0.008,0.03-0.014,0.043-0.022c0.019-0.011,0.037-0.021,0.054-0.034c0.013-0.008,0.027-0.02,0.04-0.027
	c0.017-0.014,0.033-0.026,0.047-0.041c0.01-0.008,0.018-0.014,0.025-0.021l11.742-11.743C24.926,36.855,25,36.661,25,36.467
	c0-0.193-0.075-0.389-0.223-0.535c-0.295-0.298-0.776-0.298-1.071,0h-0.001L13.258,46.376V10.757c0-0.42-0.339-0.758-0.758-0.758
	S11.741,10.337,11.741,10.757z"/>
</svg>
