<?xml version="1.0" encoding="utf-8"?>
<!-- Generator: Adobe Illustrator 16.0.0, SVG Export Plug-In . SVG Version: 6.00 Build 0)  -->
<!DOCTYPE svg PUBLIC "-//W3C//DTD SVG 1.1//EN" "http://www.w3.org/Graphics/SVG/1.1/DTD/svg11.dtd">
<svg version="1.1" id="Layer_1" xmlns="http://www.w3.org/2000/svg" xmlns:xlink="http://www.w3.org/1999/xlink" x="0px" y="0px"
	 width="320px" height="511.5px" viewBox="0 0 320 511.5" enable-background="new 0 0 320 511.5" xml:space="preserve">
<g>
	<path fill="#FFFFFF" d="M170,15c36.06,0,69.961,13.792,95.459,39.291S305,113.44,305,149.5v212
		c0,36.06-14.042,70.211-39.541,95.709C239.961,482.708,206.06,497,170,497h-20c-36.06,0-69.961-14.292-95.459-39.791
		C29.042,431.711,15,397.56,15,361.5v-212c0-36.06,14.042-69.711,39.541-95.209S113.94,15,150,15H170 M170,0h-20
		C67.157,0,0,66.657,0,149.5v212C0,444.343,67.157,512,150,512h20c82.843,0,150-67.657,150-150.5v-212C320,66.657,252.843,0,170,0
		L170,0z"/>
</g>
<path fill="#FFFFFF" d="M192,187.5c0,17.949-14.551,32.5-32.5,32.5l0,0c-17.949,0-32.5-14.551-32.5-32.5v-33
	c0-17.949,14.551-32.5,32.5-32.5l0,0c17.949,0,32.5,14.551,32.5,32.5V187.5z"/>
</svg>
