<?xml version="1.0" encoding="utf-8"?>
<!-- Generator: Adobe Illustrator 16.0.0, SVG Export Plug-In . SVG Version: 6.00 Build 0)  -->
<!DOCTYPE svg PUBLIC "-//W3C//DTD SVG 1.1//EN" "http://www.w3.org/Graphics/SVG/1.1/DTD/svg11.dtd">
<svg version="1.1" id="Layer_1" xmlns="http://www.w3.org/2000/svg" xmlns:xlink="http://www.w3.org/1999/xlink" x="0px" y="0px"
	 width="59.896px" height="53.025px" viewBox="0 0 59.896 53.025" enable-background="new 0 0 59.896 53.025" xml:space="preserve">
<g>
	<path fill="#FFFFFF" d="M29.949,2c0.653,0,1.405,0.626,2.011,1.674l8.921,15.451l7.485,12.965l8.92,15.454
		c0.604,1.048,0.771,2.011,0.444,2.578c-0.327,0.565-1.245,0.903-2.455,0.903H37.434H22.463H4.621c-1.21,0-2.128-0.338-2.455-0.903
		c-0.327-0.566-0.161-1.53,0.444-2.578l8.921-15.453l7.484-12.965l8.922-15.452C28.543,2.625,29.295,2,29.949,2 M29.949,0
		c-1.357,0-2.715,0.891-3.743,2.674l-8.922,15.452c-2.059,3.564-5.427,9.399-7.485,12.965l-8.92,15.453
		c-2.06,3.563-0.375,6.481,3.742,6.481h17.843c4.117,0,10.854,0,14.971,0h17.843c4.116,0,5.802-2.918,3.741-6.481l-8.92-15.453
		c-2.059-3.564-5.427-9.399-7.483-12.965L33.692,2.674C32.663,0.891,31.306,0,29.949,0L29.949,0z"/>
</g>
<g enable-background="new    ">
	<path fill="#FFFFFF" d="M29.424,37.807c1.439,0,2.627,1.044,2.627,2.735c0,1.729-1.188,2.808-2.627,2.808
		c-1.44,0-2.628-1.079-2.628-2.808C26.796,38.851,27.984,37.807,29.424,37.807z M28.055,22.185l-0.072-3.384h2.879l-0.071,3.384
		l-0.36,12.383h-2.016L28.055,22.185z"/>
</g>
</svg>
